<svg xmlns="http://www.w3.org/2000/svg" xmlns:xlink="http://www.w3.org/1999/xlink" enable-background="new 0 0 48 48" viewBox="0 0 48 48" id="champagne"><path fill="#569337" d="M17.3,28.1l-0.6-5.7c-0.1,0-0.2,0.1-0.3,0.1c-2.9,1-5.5,2-8.5,4.9l-4.9,4.9C2.3,33,2,33.7,2,34.5
		s0.3,1.6,0.9,2.1l8.5,8.5c0.6,0.6,1.4,0.9,2.1,0.9s1.5-0.3,2.1-0.9l5-4.9c2.9-2.9,3.9-5.6,4.9-8.5c0-0.1,0.1-0.2,0.1-0.3l-5.7-0.6
		C18.5,30.6,17.4,29.5,17.3,28.1z"></path><defs><path id="a" d="M25.6,15.1c-0.5,0.5-1,0.9-1.5,1.3
				c-1.4,1.1-2.6,1.9-3.8,2.6c-0.7,0.4-1.3,0.7-1.9,1c-0.6,0.3-1.2,0.6-1.8,0.8c-0.7,0.3-1.3,0.5-1.9,0.7c-0.1,0-0.2,0.1-0.3,0.1
				c-2.9,1-5.5,2-8.5,4.9l-4.9,4.9C0.3,32,0,32.7,0,33.5s0.3,1.6,0.9,2.1l8.5,8.5c0.6,0.6,1.4,0.9,2.1,0.9s1.5-0.3,2.1-0.9l5-4.9
				c2.9-2.9,3.9-5.6,4.9-8.5c0-0.1,0.1-0.2,0.1-0.3c0.2-0.6,0.5-1.3,0.7-1.9c0.2-0.6,0.5-1.2,0.8-1.8c0.3-0.6,0.6-1.2,1-1.9
				c0.7-1.2,1.5-2.4,2.6-3.8c0.4-0.5,0.8-1,1.3-1.5L25.6,15.1z"></path></defs><clipPath id="b"><use overflow="visible" xlink:href="#a"></use></clipPath><path fill="#61a641" d="M17.3,28.1l-0.6-5.7
			c-0.1,0-0.2,0.1-0.3,0.1c-2.9,1-5.5,2-8.5,4.9l-4.9,4.9C2.3,33,2,33.7,2,34.5s0.3,1.6,0.9,2.1l8.5,8.5c0.6,0.6,1.4,0.9,2.1,0.9
			s1.5-0.3,2.1-0.9l5-4.9c2.9-2.9,3.9-5.6,4.9-8.5c0-0.1,0.1-0.2,0.1-0.3l-5.7-0.6C18.5,30.6,17.4,29.5,17.3,28.1z" clip-path="url(#b)"></path><circle cx="41" cy="24" r="1" fill="#169ef2"></circle><circle cx="11" cy="5" r="1" fill="#169ef2"></circle><circle cx="29" cy="40" r="1" fill="#169ef2"></circle><circle cx="3" cy="13" r="1" fill="#169ef2"></circle><path fill="#f2d230" d="M45 35c0-.6-.4-1-1-1s-1 .4-1 1c-.6 0-1 .4-1 1s.4 1 1 1c0 .6.4 1 1 1s1-.4 1-1c.6 0 1-.4 1-1S45.6 35 45 35zM14 14c0-.6-.4-1-1-1s-1 .4-1 1c-.6 0-1 .4-1 1s.4 1 1 1c0 .6.4 1 1 1s1-.4 1-1c.6 0 1-.4 1-1S14.6 14 14 14z"></path><path fill="#169ef2" d="M38 46h-2c-.6 0-1-.4-1-1s.4-1 1-1h2c.6 0 1 .4 1 1S38.6 46 38 46zM34 31h-2c-.6 0-1-.4-1-1s.4-1 1-1h2c.6 0 1 .4 1 1S34.6 31 34 31zM25 11h-2c-.6 0-1-.4-1-1s.4-1 1-1h2c.6 0 1 .4 1 1S25.6 11 25 11zM5 25H3c-.6 0-1-.4-1-1s.4-1 1-1h2c.6 0 1 .4 1 1S5.6 25 5 25z"></path><path fill="#d2ecff" d="M17,35.2L12.8,31c-0.8-0.8-2-0.8-2.8,0l-2.1,2.1c-0.4,0.4-0.6,0.9-0.6,1.4c0,0.5,0.2,1,0.6,1.4l4.2,4.2
		c0.4,0.4,0.9,0.6,1.4,0.6s1-0.2,1.4-0.6l2.1-2.1C17.8,37.3,17.8,36,17,35.2z"></path><path fill="#93624a" d="M45.4,5C45.4,5,45.4,5,45.4,5L43,2.6c-0.4-0.4-1-0.6-1.7-0.6c-0.6,0.1-1.2,0.4-1.5,1l-1.1,1.8
		c-0.5,0.8-0.3,1.8,0.3,2.4l1.7,1.7c0.4,0.4,0.9,0.6,1.4,0.6c0.4,0,0.7-0.1,1-0.3L45,8.1c0.5-0.3,0.9-0.9,1-1.5
		C46.1,6.1,45.9,5.5,45.4,5z"></path><path fill="#61a641" d="M34.7 14.3c-.3 0-.5-.1-.7-.3-.4-.4-.4-1 0-1.4l2.1-2.1c.4-.4 1-.4 1.4 0s.4 1 0 1.4L35.4 14C35.2 14.2 35 14.3 34.7 14.3zM37.5 17.1c-.5 0-.9-.3-1-.8-.1-.5.2-1.1.8-1.2l3.5-.7c.5-.1 1.1.2 1.2.8.1.5-.2 1.1-.8 1.2l-3.5.7C37.7 17.1 37.6 17.1 37.5 17.1zM31.9 11.5c-.1 0-.1 0-.2 0-.5-.1-.9-.6-.8-1.2l.7-3.5c.1-.5.6-.9 1.2-.8.5.1.9.6.8 1.2l-.7 3.5C32.8 11.1 32.3 11.5 31.9 11.5z"></path><path fill="#d89e0b" d="M33.3,16.1l-1.4-1.4c-0.8-0.8-2-0.8-2.8,0c-0.5,0.5-1,0.9-1.5,1.4l4.4,4.4c0.4-0.5,0.9-1,1.4-1.5
		C34.1,18.2,34.1,16.9,33.3,16.1z"></path><path fill="#dd780a" d="M22.7,27.1c-0.9-0.1-1.7-0.8-1.8-1.8l-0.5-4.4c-0.6,0.3-1.2,0.6-1.8,0.8c-0.7,0.3-1.3,0.5-1.9,0.7l0.6,5.7
		c0.2,1.4,1.2,2.5,2.7,2.7l5.7,0.6c0.2-0.6,0.5-1.3,0.7-1.9c0.2-0.6,0.5-1.2,0.8-1.8L22.7,27.1z"></path><path fill="#d89e0b" d="M27.6,16.1c-0.5,0.5-1,0.9-1.5,1.3c-1.4,1.1-2.6,1.9-3.8,2.6c-0.7,0.4-1.3,0.7-1.9,1l0.5,4.4
		c0.1,0.9,0.8,1.7,1.8,1.8l4.4,0.5c0.3-0.6,0.6-1.2,1-1.9c0.7-1.2,1.5-2.4,2.6-3.8c0.4-0.5,0.8-1,1.3-1.5L27.6,16.1z"></path><defs><path id="c" d="M45.4,5C45.4,5,45.4,5,45.4,5L43,2.6
				c-0.4-0.4-1-0.6-1.7-0.6c-0.6,0.1-1.2,0.4-1.5,1l-1.1,1.8c-0.5,0.8-0.3,1.8,0.3,2.4l1.7,1.7c0.4,0.4,0.9,0.6,1.4,0.6
				c0.4,0,0.7-0.1,1-0.3L45,8.1c0.5-0.3,0.9-0.9,1-1.5C46.1,6.1,45.9,5.5,45.4,5z"></path></defs><clipPath id="d"><use overflow="visible" xlink:href="#c"></use></clipPath><path fill="#a67356" d="M43.4,4
			C43.4,4,43.4,4,43.4,4L41,1.6c-0.4-0.4-1-0.6-1.7-0.6c-0.6,0.1-1.2,0.4-1.5,1l-1.1,1.8c-0.5,0.8-0.3,1.8,0.3,2.4l1.7,1.7
			c0.4,0.4,0.9,0.6,1.4,0.6c0.4,0,0.7-0.1,1-0.3L43,7.1c0.5-0.3,0.9-0.9,1-1.5C44.1,5.1,43.9,4.5,43.4,4z" clip-path="url(#d)"></path><defs><path id="e" d="M25.6,15.1c-0.5,0.5-1,0.9-1.5,1.3
				c-1.4,1.1-2.6,1.9-3.8,2.6c-0.7,0.4-1.3,0.7-1.9,1c-0.6,0.3-1.2,0.6-1.8,0.8c-0.7,0.3-1.3,0.5-1.9,0.7c-0.1,0-0.2,0.1-0.3,0.1
				c-2.9,1-5.5,2-8.5,4.9l-4.9,4.9C0.3,32,0,32.7,0,33.5s0.3,1.6,0.9,2.1l8.5,8.5c0.6,0.6,1.4,0.9,2.1,0.9s1.5-0.3,2.1-0.9l5-4.9
				c2.9-2.9,3.9-5.6,4.9-8.5c0-0.1,0.1-0.2,0.1-0.3c0.2-0.6,0.5-1.3,0.7-1.9c0.2-0.6,0.5-1.2,0.8-1.8c0.3-0.6,0.6-1.2,1-1.9
				c0.7-1.2,1.5-2.4,2.6-3.8c0.4-0.5,0.8-1,1.3-1.5L25.6,15.1z"></path></defs><clipPath id="f"><use overflow="visible" xlink:href="#e"></use></clipPath><path fill="#efb207" d="M27.6,16.1
			c-0.5,0.5-1,0.9-1.5,1.3c-1.4,1.1-2.6,1.9-3.8,2.6c-0.7,0.4-1.3,0.7-1.9,1l0.5,4.4c0.1,0.9,0.8,1.7,1.8,1.8l4.4,0.5
			c0.3-0.6,0.6-1.2,1-1.9c0.7-1.2,1.5-2.4,2.6-3.8c0.4-0.5,0.8-1,1.3-1.5L27.6,16.1z" clip-path="url(#f)"></path><g><defs><path id="g" d="M25.6,15.1c-0.5,0.5-1,0.9-1.5,1.3
				c-1.4,1.1-2.6,1.9-3.8,2.6c-0.7,0.4-1.3,0.7-1.9,1c-0.6,0.3-1.2,0.6-1.8,0.8c-0.7,0.3-1.3,0.5-1.9,0.7c-0.1,0-0.2,0.1-0.3,0.1
				c-2.9,1-5.5,2-8.5,4.9l-4.9,4.9C0.3,32,0,32.7,0,33.5s0.3,1.6,0.9,2.1l8.5,8.5c0.6,0.6,1.4,0.9,2.1,0.9s1.5-0.3,2.1-0.9l5-4.9
				c2.9-2.9,3.9-5.6,4.9-8.5c0-0.1,0.1-0.2,0.1-0.3c0.2-0.6,0.5-1.3,0.7-1.9c0.2-0.6,0.5-1.2,0.8-1.8c0.3-0.6,0.6-1.2,1-1.9
				c0.7-1.2,1.5-2.4,2.6-3.8c0.4-0.5,0.8-1,1.3-1.5L25.6,15.1z"></path></defs><clipPath id="h"><use overflow="visible" xlink:href="#g"></use></clipPath><path fill="#f28705" d="M22.7,27.1
			c-0.9-0.1-1.7-0.8-1.8-1.8l-0.5-4.4c-0.6,0.3-1.2,0.6-1.8,0.8c-0.7,0.3-1.3,0.5-1.9,0.7l0.6,5.7c0.2,1.4,1.2,2.5,2.7,2.7l5.7,0.6
			c0.2-0.6,0.5-1.3,0.7-1.9c0.2-0.6,0.5-1.2,0.8-1.8L22.7,27.1z" clip-path="url(#h)"></path></g><g><defs><path id="i" d="M33.3,16.1l-1.4-1.4c-0.8-0.8-2-0.8-2.8,0
				c-0.5,0.5-1,0.9-1.5,1.4l4.4,4.4c0.4-0.5,0.9-1,1.4-1.5C34.1,18.2,34.1,16.9,33.3,16.1z"></path></defs><clipPath id="j"><use overflow="visible" xlink:href="#i"></use></clipPath><path fill="#efb207" d="M31.3,15.1l-1.4-1.4
			c-0.8-0.8-2-0.8-2.8,0c-0.5,0.5-1,0.9-1.5,1.4l4.4,4.4c0.4-0.5,0.9-1,1.4-1.5C32.1,17.2,32.1,15.9,31.3,15.1z" clip-path="url(#j)"></path></g></svg>