<svg xmlns="http://www.w3.org/2000/svg" viewBox="0 0 64 64" id="cooking"><g data-name="18. Cooking"><circle cx="32" cy="11" r="6" fill="#88b8f9"></circle><path fill="#88b8f9" d="M46.06 28.59c-6.41-8.21-5.79-7.43-6-7.66A3 3 0 0 0 38 20H26a3 3 0 0 0-2.28 1.18L19.15 27l-7.34-2.83a2 2 0 0 0-1.62 3.66L19 32.28a2.34 2.34 0 0 0 2.74-.46l3.93-4C24.9 44.11 25 41.21 25 44h14c0-2.64 0-.88-.28-8.22 0 0 6.81-3.78 6.9-3.85a2.38 2.38 0 0 0 .44-3.34Zm-7.57 2.22-.14-3 1.83 1.86Z"></path><path fill="#b7dbf9" d="M40 3a3 3 0 0 0-5.5-1.65 3 3 0 0 0-5 0A3 3 0 1 0 26 5.82V11h12V5.82A3 3 0 0 0 40 3Z"></path><path fill="#ee7231" d="M57 2v6a2 2 0 0 1-2 2H45l-1.54 1.54a.27.27 0 0 1-.46-.18V2a2 2 0 0 1 2-2h10a2 2 0 0 1 2 2Z"></path><circle cx="50" cy="5" r="1" fill="#fffeff"></circle><circle cx="54" cy="5" r="1" fill="#fffeff"></circle><circle cx="46" cy="5" r="1" fill="#fffeff"></circle><path fill="#b7dbf9" d="M40 52H24l2-32h2v5h8v-5h2l2 32z"></path><path fill="#2f79f0" d="M6 46h52v18H6z"></path><path fill="#0c3798" d="M4 42h56v4H4z"></path><path fill="#ee7231" d="M51.87 33c-1.76 0-2.71 1.1-1.36 1.73L49.87 36h4l-.63-1.27c1.39-.65.35-1.73-1.37-1.73Z"></path><path fill="#f8cf6d" d="M53.26 42h-2.77A1.49 1.49 0 0 1 49 40.22l.87-4.22h4l.85 4.22A1.5 1.5 0 0 1 53.26 42zM41 40c0 2.21-4 2-9 2s-9 .21-9-2 4-6 9-6 9 3.79 9 6z"></path><path fill="#88b8f9" d="m45.32 32.12-8.26 4.58a2 2 0 0 1-2.12-3.4l5.24-3.68"></path><path fill="#f8cf6d" d="M13 15v-2a1 1 0 0 0-2 0v2a2 2 0 0 0-2 2v16a2 2 0 0 0 2 2v2a1 1 0 0 0 2 0v-2a2 2 0 0 0 2-2V17a2 2 0 0 0-2-2Z"></path></g></svg>