<svg xmlns="http://www.w3.org/2000/svg" width="512" height="512" enable-background="new 0 0 512 512" viewBox="0 0 512 512" id="pear"><path d="M271.29 90.17c2.77.62 5.82 1.43 9.05 2.48-3.47.49-6.54.71-8.939.8-3.29.11-5.311-.01-5.311-.01s-.1-1.61-.04-4.29C267.65 89.41 269.41 89.75 271.29 90.17zM268.8 69.67c.681 3.34 1.23 6.72 1.641 10.12-1.25-.24-2.44-.45-3.561-.63C267.3 76.22 267.91 73 268.8 69.67z"></path><linearGradient id="a" x1="275.231" x2="329.155" y1="59.438" y2="59.438" gradientUnits="userSpaceOnUse"><stop offset="0" stop-color="#39b54a"></stop><stop offset="1" stop-color="#009444"></stop></linearGradient><path fill="url(#a)" d="M313.54,77.87c-4.93,4.93-10.87,8.32-16.86,10.64c-5.52-2.68-10.88-4.67-15.8-6.15l-0.02-0.3
	l-0.07-0.02l-0.42-3.45c-0.44-3.63-1.04-7.3-1.76-10.88c-0.91-4.55-2.04-9.05-3.38-13.47c1.779-2.93,3.909-5.72,6.43-8.25
	C299.06,28.59,329.1,30.42,329.1,30.42S330.94,60.47,313.54,77.87z"></path><linearGradient id="b" x1="227.759" x2="270.44" y1="49.925" y2="49.925" gradientUnits="userSpaceOnUse"><stop offset="0" stop-color="#a97c50"></stop><stop offset="1" stop-color="#603913"></stop></linearGradient><path fill="url(#b)" d="M270.44,79.79c-1.25-0.24-2.44-0.45-3.561-0.63c-6.37-1-10.5-1.04-10.91-1.05
		c-0.4,0.01-4.93,0.05-11.85,1.22c-2.17-13.91-7.05-27.3-14.47-39.52c-3.73-6.14-1.77-14.13,4.36-17.86
		c6.14-3.73,14.14-1.77,17.86,4.36c8.189,13.49,13.89,28.13,16.93,43.36C269.48,73.01,270.03,76.39,270.44,79.79z"></path><linearGradient id="c" x1="245.21" x2="271.425" y1="101.744" y2="101.744" gradientUnits="userSpaceOnUse"><stop offset="0" stop-color="#a97c50"></stop><stop offset="1" stop-color="#603913"></stop></linearGradient><path fill="url(#c)" d="M271.25,103.04c-0.3,5.84-4.41,10.58-9.79,11.95c-1.229,0.31-2.53,0.44-3.86,0.37
		c-7.169-0.36-12.68-6.47-12.32-13.64c0.21-4.17,0.19-8.33-0.07-12.45c6.59-1.15,10.79-1.16,10.79-1.16s3.89,0.01,10.05,1.04
		c1.601,0.26,3.36,0.6,5.24,1.02c0.06,1.09,0.09,2.19,0.11,3.28C271.46,96.64,271.41,99.84,271.25,103.04z"></path><linearGradient id="d" x1="93.628" x2="418.372" y1="290.025" y2="290.025" gradientUnits="userSpaceOnUse"><stop offset="0" stop-color="#d7df23"></stop><stop offset="1" stop-color="#8dc63f"></stop></linearGradient><path fill="url(#d)" d="M418.19,317.08c-2.91-72.95-69.171-98.74-73.65-136.13c-5.94-58.87-40.1-80.41-64.2-88.3
	c-3.229-1.05-6.28-1.86-9.05-2.48c-1.88-0.42-3.64-0.76-5.24-1.02c-6.16-1.03-10.05-1.04-10.05-1.04s-4.2,0.01-10.79,1.16
	c-22,3.85-70.56,20.4-77.75,91.68c-4.48,37.39-70.74,63.18-73.65,136.13C91.58,373.99,107.82,488.26,256,491.94
	c70.24-1.74,110.83-28.33,133.86-61.881C415.43,392.82,419.36,347.02,418.19,317.08z M175.07,432.3
	c-1.36,1.351-3.14,2.021-4.92,2.021c-1.8,0-3.61-0.7-4.98-2.08c-14.78-14.98-25.9-32.181-33.03-51.15
	c-10.23-27.149-11.9-57.12-4.98-89.07c0.82-3.779,4.54-6.17,8.32-5.359c3.78,0.82,6.18,4.54,5.36,8.32
	c-13.61,62.829,11.14,103.97,34.29,127.42C177.85,425.15,177.82,429.58,175.07,432.3z"></path></svg>